<svg height="512" viewBox="0 0 512 512" width="512" xmlns="http://www.w3.org/2000/svg"><g id="Corona_Virus_Symptoms_Shortness_of_breath" data-name="Corona Virus Symptoms Shortness of breath"><g id="Flat"><path d="m409.86 324.18s-57.44 56.8-118.38 76.18a8.01 8.01 0 0 1 -10.23-9.39c3.91-17.29 7.52-29.4 9.06-34.29l-8.08-28.45-50.02 14.21a35.727 35.727 0 0 1 -27.37-3.19c-19.55-10.9-17.7-30.06-25.72-51.93-22.93-7.26-27.42-5.8-30.09-11.25-2.75-5.6.93-7.14 14.6-43.22-7.91-28.4-13.74-48.38-17.96-62.55l199.32-64.3c67.2 216.46 64.87 218.18 64.87 218.18z" fill="#ffdfc5"/><path d="m381.267 224.1a216.866 216.866 0 0 1 -98.989 104.3l8.032 28.282c-1.54 4.89-5.15 17-9.06 34.29a8.01 8.01 0 0 0 10.23 9.39c60.94-19.38 118.38-76.18 118.38-76.18s1.377-1.028-28.593-100.082z" fill="#ffd5c7"/><path d="m392.234 286.634c-73.655-6.089-92.751-73.3-104.16-113.452-2.516-8.857-9.669-11.214-18.011-7.877-.642.256-72.162 20.556-72.579 20.665-22.726 6.045-43.441 3.441-61.575-7.742-40.469-24.957-53.151-83.849-53.671-86.344-1.738-8.325 8.506-13.094 13.707-7.065 38.29 37.655 184.619-137.994 251.693-68.289 17.944-2.6 35.383 4.841 49.565 21.3 18.46 21.418 29.656 55.692 31.527 96.508 2.1 45.819-7.733 96.774-28.433 147.357a8 8 0 0 1 -8.063 4.939z" fill="#68676b"/><path d="m428.73 134.334c-1.788-39.008-12.1-72.033-29.123-93.579a211.9 211.9 0 0 1 -100.255 167.665c13.743 35.72 38.367 73.708 92.882 78.214a8 8 0 0 0 8.063-4.943c20.703-50.583 30.532-101.538 28.433-147.357z" fill="#58575b"/><path d="m511.893 512h-243.727c-.918-48.383 6.73-92.89 13.086-121.031 14.748-6.969 94.748-38.969 127.809-78.819 34.624 26.346 59.444 53.235 75.879 82.2 19.36 34.128 28.145 72.522 26.953 117.65z" fill="#96e0d7"/><path d="m351.8 201.41c0 17.83-8.5 32.63-26.99 38.36-8.1 4.59-13.64 8.17-17.69 10.79l-26.32-60.17 10.92-6.11c-4.58-36.25 44.28-47.32 57.36-1.29a67.6 67.6 0 0 1 2.72 18.42z" fill="#ffdfc5"/><circle cx="208" cy="256" fill="#97d0dd" r="8"/><circle cx="240" cy="256" fill="#97d0dd" r="8"/><circle cx="336" cy="328" fill="#97d0dd" r="8"/><circle cx="320" cy="304" fill="#97d0dd" r="8"/><circle cx="296" cy="280" fill="#97d0dd" r="8"/><circle cx="272" cy="264" fill="#97d0dd" r="8"/><g fill="#afefde"><circle cx="8" cy="328" r="8"/><circle cx="40" cy="328" r="8"/><circle cx="72" cy="328" r="8"/><circle cx="168" cy="360" r="8"/><path d="m136 304h-72a32 32 0 0 1 0-64c30.515 0 40.8 40 24 40a8 8 0 0 1 -8-8 16 16 0 1 0 -16 16h72a8 8 0 0 1 0 16z"/><path d="m64 416a32 32 0 0 1 0-64h72a8 8 0 0 1 0 16h-72a16 16 0 1 0 16 16 8 8 0 0 1 8-8c16.807 0 6.5 40-24 40z"/><path d="m168 336h-64a8 8 0 0 1 0-16h64a8 8 0 0 1 0 16z"/></g><circle cx="312" cy="48" fill="#8a8a8c" r="24"/><circle cx="276" cy="92" fill="#8a8a8c" r="12"/><path d="m484.94 394.352a226.893 226.893 0 0 0 -30.105-40.972 196.153 196.153 0 0 1 -117.178 158.62h174.236c1.192-45.128-7.593-83.522-26.953-117.648z" fill="#97d0dd"/><path d="m343.735 512v-79.97a55.971 55.971 0 0 1 55.765-56.23h.237a56.062 56.062 0 0 1 56 55.767v80.433z" fill="#afefde"/><circle cx="392" cy="424" fill="#d5f7ed" r="16"/><circle cx="416" cy="448" fill="#d5f7ed" r="8"/><path d="m296 512h-56v-7.208l-15.845-79.223 24.354-68.378c5.156-13.749 30.3-.416 23.491 26.809l-8 40 8 24c0-40 40-40 40 0 0 45.568 0 40-16 59.26z" fill="#ffdfc5"/><path d="m239.153 500.556.847 4.236v7.208h56v-4.74c16-19.26 16-13.692 16-59.26a50.668 50.668 0 0 0 -.806-9.232 108.244 108.244 0 0 1 -72.041 61.788z" fill="#ffd5c7"/></g></g></svg>