<?xml version="1.0" encoding="utf-8"?>
<!-- Generator: Adobe Illustrator 24.0.1, SVG Export Plug-In . SVG Version: 6.00 Build 0)  -->
<svg version="1.1" id="Layer_1" xmlns="http://www.w3.org/2000/svg" xmlns:xlink="http://www.w3.org/1999/xlink" x="0px" y="0px"
	 viewBox="0 0 512 512" style="enable-background:new 0 0 512 512;" xml:space="preserve">
<style type="text/css">
	.st0{fill:#FFFFFF;}
	.st1{fill:#EAE5E5;}
	.st2{fill:#C1BCBC;}
</style>
<g>
	
		<image style="overflow:visible;opacity:0.75;enable-background:new    ;" width="552" height="574" xlink:href="BCAC5CD8.png"  transform="matrix(0.9991 0 0 0.9991 -12.7503 -7.7403)">
	</image>
	<g>
		<g>
			<ellipse class="st0" cx="256" cy="256" rx="152.6" ry="149.5"/>
			<path class="st1" d="M256,106.5v298.9c84.3,0,152.6-66.9,152.6-149.5S340.3,106.5,256,106.5L256,106.5z"/>
			<path class="st1" d="M444.4,346.8l-37.8-21.4c8.3-17.2,13.6-36,15.3-55.8h23.3v14.9H473v-57.1h-27.8v14.9h-23.3
				c-1.7-19.8-7-38.6-15.3-55.8l37.8-21.4l9.5,16.1l24.1-13.6l-32.9-55.8L421,125.5l9.5,16.1L392.7,163
				c-11.3-15.9-25.5-29.8-41.7-40.8l11.7-19.8l13.2,7.5l13.9-23.6l-50.5-28.6l-13.9,23.6l13.2,7.5l-11.7,19.8
				c-17.5-8.1-36.8-13.3-57-15V50.7h19V23.5h-65.8v27.2h19v42.7c-20.2,1.6-39.4,6.9-57,15l-11.7-19.8l13.2-7.5l-13.9-23.6
				l-50.5,28.6l13.9,23.6l13.2-7.5L161,122c-16.2,11.1-30.4,24.9-41.7,40.8l-37.8-21.4l9.5-16.1l-24.1-13.6l-32.9,56l24.1,13.6
				l9.5-16.1l37.8,21.4c-8.3,17.2-13.6,36-15.3,55.8H66.8v-14.9H39v57.1h27.8v-14.9h23.3c1.7,19.8,7,38.6,15.3,55.8l-37.8,21.4
				l-9.5-16.1L34,344.3l32.9,55.8L91,386.5l-9.5-16.1l37.8-21.4c11.3,15.9,25.5,29.8,41.7,40.8l-11.7,19.8l-13.2-7.5l-13.9,23.6
				l50.5,28.6l13.9-23.6l-13.2-7.5l11.7-19.8c17.5,8.1,36.8,13.3,57,15v42.7h-19v27.2h65.8v-27.2h-19v-42.7c20.2-1.6,39.4-6.9,57-15
				l11.7,19.8l-13.2,7.5l13.9,23.6l50.5-28.6l-13.9-23.6l-13.2,7.5L351,389.9c16.2-11.1,30.4-24.9,41.7-40.8l37.8,21.4l-9.5,16.1
				l24.1,13.6l32.9-55.8l-24.1-13.6L444.4,346.8z M256,391.8c-76.5,0-138.7-60.9-138.7-135.8S179.5,120.2,256,120.2
				S394.7,181.1,394.7,256S332.5,391.8,256,391.8z"/>
			<g>
				<ellipse class="st2" cx="312.6" cy="208.5" rx="39.6" ry="38.8"/>
				<ellipse class="st1" cx="276.3" cy="325.6" rx="40.2" ry="39.4"/>
				<ellipse class="st2" cx="189" cy="235.9" rx="43.7" ry="42.8"/>
			</g>
			<ellipse class="st2" cx="312.6" cy="208.5" rx="39.6" ry="38.8"/>
			<path class="st0" d="M444.4,346.8l-37.8-21.4c8.3-17.2,13.6-36,15.3-55.8h23.3v14.9H473v-57.1h-27.8v14.9h-23.3
				c-1.7-19.8-7-38.6-15.3-55.8l37.8-21.4l9.5,16.1l24.1-13.6l-32.9-55.8L421,125.5l9.5,16.1L392.7,163
				c-11.3-15.9-25.5-29.8-41.7-40.8l11.7-19.8l13.2,7.5l13.9-23.6l-50.5-28.6l-13.9,23.6l13.2,7.5l-11.7,19.8
				c-17.5-8.1-36.8-13.3-57-15V50.7h19V23.5H256v96.7c76.5,0,138.7,60.9,138.7,135.8S332.5,391.8,256,391.8v96.7h32.9v-27.2h-19
				v-42.7c20.2-1.6,39.4-6.9,57-15l11.7,19.8l-13.2,7.5l13.9,23.6l50.5-28.6l-13.9-23.6l-13.2,7.5L351,389.9
				c16.2-11.1,30.4-24.9,41.7-40.8l37.8,21.4l-9.5,16.1l24.1,13.6l32.9-55.8l-24.1-13.6L444.4,346.8z"/>
			<path class="st2" d="M316.5,325.6c0-21.7-18-39.4-40.2-39.4c-7.4,0-14.4,2-20.3,5.4v67.8c6,3.5,12.9,5.4,20.3,5.4
				C298.5,365,316.5,347.3,316.5,325.6L316.5,325.6z"/>
		</g>
	</g>
</g>
</svg>
