<?xml version="1.0" encoding="utf-8"?>
<!-- Generator: Adobe Illustrator 24.0.1, SVG Export Plug-In . SVG Version: 6.00 Build 0)  -->
<svg version="1.1" id="Layer_1" xmlns="http://www.w3.org/2000/svg" xmlns:xlink="http://www.w3.org/1999/xlink" x="0px" y="0px"
	 viewBox="0 0 512 512" style="enable-background:new 0 0 512 512;" xml:space="preserve">
<style type="text/css">
	.st0{opacity:0;}
	.st1{fill:#B6B7F6;}
</style>
<g>
	<g class="st0">
		<path d="M535,271.5c0-3.6-0.5-6.3-1-9.5c-1.1-6.9-2.9-13.1-5-19.5c-1.1-3.4-2-6-2-10c0-3.4,0.1-6.2,1-9c2-6,4.1-12.7,5-19
			c0.5-3.5,0.6-6.9,1-10c0.5-3.4-1-6-1-9.5c0-3.7-1.2-6.7-2-10c-0.7-3-0.6-6.8-2-9.5c-3.1-6.3-5.9-12.7-9-19c-1.6-3.3-4-7-6-10
			c-2-3-3.9-6.1-6-9c-4.9-6.7-10.2-12.6-17.5-17.5c-6.2-4.1-12.5-6.4-19.5-9h-5c0-0.3,0-0.7,0-1h-9c0-0.3,0-0.7,0-1h-9
			c-3.5-2.9-6.6-4.7-9-8.5c-2.2-3.5-4.5-6.6-7-10c-4.7-6.4-11.3-10.9-18-15.5c-12.2-8.3-25.2-12.8-39-18h-5c0-0.3,0-0.7,0-1h-9
			c0-0.3,0-0.7,0-1h-10c-9.9-6.5-12-17.1-21-24.5c-7.6-6.2-16.4-8.2-25-12.5h-5c0-0.3,0-0.7,0-1h-6c0-0.3,0-0.7,0-1h-9
			c0-0.3,0-0.7,0-1h-30c0,0.3,0,0.7,0,1h-9c0,0.3,0,0.7,0,1h-6c0,0.3,0,0.7,0,1h-5c-8.6,4.3-17.4,6.3-25,12.5
			c-9,7.4-11.2,17.9-21,24.5h-10c0,0.3,0,0.7,0,1h-9c0,0.3,0,0.7,0,1h-5c-13.9,5.2-26.8,9.7-39,18c-6.6,4.5-14.4,9.2-18.5,16
			c-2,3.3-4.4,6.2-6.5,9.5c-2.4,3.7-5.5,5.6-9,8.5h-9c0,0.3,0,0.7,0,1h-9c0,0.3,0,0.7,0,1h-5c-7.8,2.9-15.3,5.5-22,10.5
			c-8,6-12.9,13.4-18,21c-8.9,13.4-17.4,27-20,43c-0.1,0.5-0.8,2.4-1,3c-0.2,0.5,0.1,1.5,0,2c-0.1,0.7-0.9,1.4-1,2.5
			c-0.1,0.8,0,1.7,0,2.5c0,3.4-1.5,5.7-1,9c0.9,6.1,1.1,13.2,3,19c1.1,3.3,1.9,6.7,3,10c0.7,2,1,2.6,1,5c0,1.5,0,3,0,4.5
			c0,3.9-0.9,6.6-2,10c-1,3.1-1.9,6.3-3,9.5c-1.9,5.8-3,12.5-3,19c0,3.7-1,6.3-1,10c0,3,0,6,0,9c0,3.8,1,6.3,1,10
			c0,3.6,0.5,6.3,1,9.5c1.1,6.9,2.9,13.1,5,19.5c1.1,3.4,2,6,2,10c0,3.4-0.1,6.2-1,9c-2,6-4.1,12.7-5,19c-0.5,3.5-0.6,6.9-1,10
			c-0.5,3.4,1,6,1,9.5c0,3.7,1.2,6.7,2,10c0.7,3,0.6,6.8,2,9.5c3.1,6.3,5.9,12.7,9,19c1.6,3.3,4,7,6,10c2,3,3.9,6.1,6,9
			c4.9,6.7,10.2,12.6,17.5,17.5c6.2,4.1,12.5,6.4,19.5,9h5c0,0.3,0,0.7,0,1h9c0,0.3,0,0.7,0,1h9c3.5,2.9,6.6,4.7,9,8.5
			c2.2,3.5,4.5,6.6,7,10c4.7,6.4,11.3,10.9,18,15.5c12.2,8.3,25.2,12.8,39,18h5c0,0.3,0,0.7,0,1h9c0,0.3,0,0.7,0,1h10
			c9.9,6.5,12,17.1,21,24.5c7.6,6.2,16.4,8.2,25,12.5h5c0,0.3,0,0.7,0,1h6c0,0.3,0,0.7,0,1h9c0,0.3,0,0.7,0,1h30c0-0.3,0-0.7,0-1h9
			c0-0.3,0-0.7,0-1h6c0-0.3,0-0.7,0-1h5c8.6-4.3,17.4-6.3,25-12.5c9-7.4,11.2-17.9,21-24.5h10c0-0.3,0-0.7,0-1h9c0-0.3,0-0.7,0-1h5
			c13.9-5.2,26.8-9.7,39-18c6.6-4.5,14.4-9.2,18.5-16c2-3.3,4.4-6.2,6.5-9.5c2.4-3.7,5.5-5.6,9-8.5h9c0-0.3,0-0.7,0-1h9
			c0-0.3,0-0.7,0-1h5c7.8-2.9,15.3-5.5,22-10.5c8-6,12.9-13.4,18-21c8.9-13.4,17.4-27,20-43c0.1-0.5,0.8-2.4,1-3
			c0.2-0.5-0.1-1.5,0-2c0.1-0.7,0.9-1.4,1-2.5c0.1-0.8,0-1.7,0-2.5c0-3.4,1.5-5.7,1-9c-0.9-6.1-1.1-13.2-3-19c-1.1-3.3-1.9-6.7-3-10
			c-0.7-2-1-2.6-1-5c0-1.5,0-3,0-4.5c0-3.9,0.9-6.6,2-10c1-3.1,1.9-6.3,3-9.5c1.9-5.8,3-12.5,3-19c0-3.7,1-6.3,1-10c0-3,0-6,0-9
			C536,277.7,535,275.2,535,271.5z"/>
		<ellipse cx="263" cy="263" rx="152.6" ry="149.5"/>
		<path d="M451.4,353.8l-37.8-21.4c8.3-17.2,13.6-36,15.3-55.8h23.3v14.9H480v-57.1h-27.8v14.9h-23.3c-1.7-19.8-7-38.6-15.3-55.8
			l37.8-21.4l9.5,16.1l24.1-13.6l-32.9-55.8L428,132.5l9.5,16.1L399.7,170c-11.3-15.9-25.5-29.8-41.7-40.8l11.7-19.8l13.2,7.5
			l13.9-23.6l-50.5-28.6l-13.9,23.6l13.2,7.5l-11.7,19.8c-17.5-8.1-36.8-13.3-57-15V57.7h19V30.5h-65.8v27.2h19v42.7
			c-20.2,1.6-39.4,6.9-57,15l-11.7-19.8l13.2-7.5l-13.9-23.6l-50.5,28.6l13.9,23.6l13.2-7.5L168,129c-16.2,11.1-30.4,24.9-41.7,40.8
			l-37.8-21.4l9.5-16.1l-24.1-13.6l-32.9,56l24.1,13.6l9.5-16.1l37.8,21.4c-8.3,17.2-13.6,36-15.3,55.8H73.8v-14.9H46v57.1h27.8
			v-14.9h23.3c1.7,19.8,7,38.6,15.3,55.8l-37.8,21.4l-9.5-16.1L41,351.3l32.9,55.8L98,393.5l-9.5-16.1l37.8-21.4
			c11.3,15.9,25.5,29.8,41.7,40.8l-11.7,19.8l-13.2-7.5l-13.9,23.6l50.5,28.6l13.9-23.6l-13.2-7.5l11.7-19.8
			c17.5,8.1,36.8,13.3,57,15v42.7h-19v27.2h65.8v-27.2h-19v-42.7c20.2-1.6,39.4-6.9,57-15l11.7,19.8l-13.2,7.5l13.9,23.6l50.5-28.6
			l-13.9-23.6l-13.2,7.5L358,396.9c16.2-11.1,30.4-24.9,41.7-40.8l37.8,21.4l-9.5,16.1l24.1,13.6l32.9-55.8l-24.1-13.6L451.4,353.8z
			 M263,398.8c-76.5,0-138.7-60.9-138.7-135.8S186.5,127.2,263,127.2S401.7,188.1,401.7,263S339.5,398.8,263,398.8z"/>
		<path d="M451.4,353.8l-37.8-21.4c8.3-17.2,13.6-36,15.3-55.8h23.3v14.9H480v-57.1h-27.8v14.9h-23.3c-1.7-19.8-7-38.6-15.3-55.8
			l37.8-21.4l9.5,16.1l24.1-13.6l-32.9-55.8L428,132.5l9.5,16.1L399.7,170c-11.3-15.9-25.5-29.8-41.7-40.8l11.7-19.8l13.2,7.5
			l13.9-23.6l-50.5-28.6l-13.9,23.6l13.2,7.5l-11.7,19.8c-17.5-8.1-36.8-13.3-57-15V57.7h19V30.5H263v96.7
			c76.5,0,138.7,60.9,138.7,135.8S339.5,398.8,263,398.8v96.7h32.9v-27.2h-19v-42.7c20.2-1.6,39.4-6.9,57-15l11.7,19.8l-13.2,7.5
			l13.9,23.6l50.5-28.6l-13.9-23.6l-13.2,7.5L358,396.9c16.2-11.1,30.4-24.9,41.7-40.8l37.8,21.4l-9.5,16.1l24.1,13.6l32.9-55.8
			l-24.1-13.6L451.4,353.8z"/>
	</g>
	<g>
		<g>
			
				<image style="overflow:visible;opacity:0.75;enable-background:new    ;" width="552" height="574" xlink:href="BCAC5CD8.png"  transform="matrix(0.9991 0 0 0.9991 -12.7503 -7.7403)">
			</image>
			<g>
				<g>
					<ellipse class="st1" cx="256" cy="256" rx="152.6" ry="149.5"/>
					<path class="st1" d="M444.4,346.8l-37.8-21.4c8.3-17.2,13.6-36,15.3-55.8h23.3v14.9H473v-57.1h-27.8v14.9h-23.3
						c-1.7-19.8-7-38.6-15.3-55.8l37.8-21.4l9.5,16.1l24.1-13.6l-32.9-55.8L421,125.5l9.5,16.1L392.7,163
						c-11.3-15.9-25.5-29.8-41.7-40.8l11.7-19.8l13.2,7.5l13.9-23.6l-50.5-28.6l-13.9,23.6l13.2,7.5l-11.7,19.8
						c-17.5-8.1-36.8-13.3-57-15V50.7h19V23.5h-65.8v27.2h19v42.7c-20.2,1.6-39.4,6.9-57,15l-11.7-19.8l13.2-7.5l-13.9-23.6
						l-50.5,28.6l13.9,23.6l13.2-7.5L161,122c-16.2,11.1-30.4,24.9-41.7,40.8l-37.8-21.4l9.5-16.1l-24.1-13.6l-32.9,56l24.1,13.6
						l9.5-16.1l37.8,21.4c-8.3,17.2-13.6,36-15.3,55.8H66.8v-14.9H39v57.1h27.8v-14.9h23.3c1.7,19.8,7,38.6,15.3,55.8l-37.8,21.4
						l-9.5-16.1L34,344.3l32.9,55.8L91,386.5l-9.5-16.1l37.8-21.4c11.3,15.9,25.5,29.8,41.7,40.8l-11.7,19.8l-13.2-7.5l-13.9,23.6
						l50.5,28.6l13.9-23.6l-13.2-7.5l11.7-19.8c17.5,8.1,36.8,13.3,57,15v42.7h-19v27.2h65.8v-27.2h-19v-42.7
						c20.2-1.6,39.4-6.9,57-15l11.7,19.8l-13.2,7.5l13.9,23.6l50.5-28.6l-13.9-23.6l-13.2,7.5L351,389.9
						c16.2-11.1,30.4-24.9,41.7-40.8l37.8,21.4l-9.5,16.1l24.1,13.6l32.9-55.8l-24.1-13.6L444.4,346.8z M256,391.8
						c-76.5,0-138.7-60.9-138.7-135.8S179.5,120.2,256,120.2S394.7,181.1,394.7,256S332.5,391.8,256,391.8z"/>
					<path class="st1" d="M444.4,346.8l-37.8-21.4c8.3-17.2,13.6-36,15.3-55.8h23.3v14.9H473v-57.1h-27.8v14.9h-23.3
						c-1.7-19.8-7-38.6-15.3-55.8l37.8-21.4l9.5,16.1l24.1-13.6l-32.9-55.8L421,125.5l9.5,16.1L392.7,163
						c-11.3-15.9-25.5-29.8-41.7-40.8l11.7-19.8l13.2,7.5l13.9-23.6l-50.5-28.6l-13.9,23.6l13.2,7.5l-11.7,19.8
						c-17.5-8.1-36.8-13.3-57-15V50.7h19V23.5H256v96.7c76.5,0,138.7,60.9,138.7,135.8S332.5,391.8,256,391.8v96.7h32.9v-27.2h-19
						v-42.7c20.2-1.6,39.4-6.9,57-15l11.7,19.8l-13.2,7.5l13.9,23.6l50.5-28.6l-13.9-23.6l-13.2,7.5L351,389.9
						c16.2-11.1,30.4-24.9,41.7-40.8l37.8,21.4l-9.5,16.1l24.1,13.6l32.9-55.8l-24.1-13.6L444.4,346.8z"/>
				</g>
			</g>
		</g>
	</g>
</g>
</svg>
