<?xml version="1.0" encoding="utf-8"?>
<!-- Generator: Adobe Illustrator 24.0.1, SVG Export Plug-In . SVG Version: 6.00 Build 0)  -->
<svg version="1.1" id="Layer_1" xmlns="http://www.w3.org/2000/svg" xmlns:xlink="http://www.w3.org/1999/xlink" x="0px" y="0px"
	 viewBox="0 0 512 512" style="enable-background:new 0 0 512 512;" xml:space="preserve">
<style type="text/css">
	.st0{fill:#B6B7F6;}
	.st1{fill:#6D6FEE;}
	.st2{fill:#FFB655;}
	.st3{fill:#2E31E6;}
</style>
<g>
	<circle class="st0" cx="256" cy="256" r="164.6"/>
	<path class="st1" d="M256,91.4v329.1c90.9,0,164.6-73.7,164.6-164.6S346.9,91.4,256,91.4L256,91.4z"/>
	<path class="st1" d="M459.2,356l-40.8-23.5c8.9-18.9,14.7-39.6,16.5-61.5h25.1v16.5h30v-62.9h-30V241h-25.1
		c-1.8-21.8-7.5-42.5-16.5-61.5l40.8-23.5l10.2,17.7l26-15L460,97.3l-26,15l10.2,17.7l-40.8,23.6c-12.2-17.5-27.5-32.8-45-45
		L371,86.8l14.3,8.2l15-26l-54.5-31.5l-15,26l14.3,8.2l-12.6,21.8c-18.9-8.9-39.6-14.7-61.5-16.5V30h20.5V0h-70.9v30H241v47.1
		c-21.8,1.8-42.5,7.5-61.5,16.5L167,71.8l14.3-8.2l-15-26L111.7,69l15,26l14.3-8.2l12.6,21.8c-17.5,12.2-32.8,27.5-45,45L67.8,130
		L78,112.3l-26-15l-35.5,61.4l26,15L52.8,156l40.8,23.5c-8.9,18.9-14.7,39.6-16.5,61.5H51.9v-16.5h-30v62.9h30V271h25.1
		c1.8,21.8,7.5,42.5,16.5,61.5L52.8,356l-10.2-17.7l-26,15L52,414.7l26-15L67.8,382l40.8-23.6c12.2,17.5,27.5,32.8,45,45L141,425.2
		l-14.3-8.2l-15,26l54.5,31.5l15-26l-14.3-8.2l12.6-21.8c18.9,8.9,39.6,14.7,61.5,16.5V482h-20.5v30h70.9v-30H271v-47.1
		c21.8-1.8,42.5-7.5,61.5-16.5l12.6,21.8l-14.3,8.2l15,26l54.5-31.5l-15-26l-14.3,8.2l-12.6-21.8c17.5-12.2,32.8-27.5,45-45
		l40.8,23.6L434,399.7l26,15l35.5-61.4l-26-15L459.2,356z M256,405.6c-82.5,0-149.6-67.1-149.6-149.6S173.5,106.4,256,106.4
		S405.6,173.5,405.6,256S338.5,405.6,256,405.6z"/>
	<g>
		<circle class="st2" cx="317" cy="203.7" r="42.8"/>
		<ellipse class="st1" cx="277.9" cy="332.7" rx="43.3" ry="43.3"/>
		<circle class="st1" cx="183.7" cy="233.9" r="47.1"/>
	</g>
	<circle class="st0" cx="317" cy="203.7" r="42.8"/>
	<path class="st3" d="M459.2,356l-40.8-23.5c8.9-18.9,14.7-39.6,16.5-61.5h25.1v16.5h30v-62.9h-30V241h-25.1
		c-1.8-21.8-7.5-42.5-16.5-61.5l40.8-23.5l10.2,17.7l26-15L460,97.3l-26,15l10.2,17.7l-40.8,23.6c-12.2-17.5-27.5-32.8-45-45
		L371,86.8l14.3,8.2l15-26l-54.5-31.5l-15,26l14.3,8.2l-12.6,21.8c-18.9-8.9-39.6-14.7-61.5-16.5V30h20.5V0H256v106.4
		c82.5,0,149.6,67.1,149.6,149.6S338.5,405.6,256,405.6V512h35.5v-30H271v-47.1c21.8-1.8,42.5-7.5,61.5-16.5l12.6,21.8l-14.3,8.2
		l15,26l54.5-31.5l-15-26l-14.3,8.2l-12.6-21.8c17.5-12.2,32.8-27.5,45-45l40.8,23.6L434,399.7l26,15l35.5-61.4l-26-15L459.2,356z"
		/>
	<path class="st0" d="M321.3,332.7c0-23.9-19.4-43.3-43.3-43.3c-8,0-15.5,2.2-21.9,6V370c6.4,3.8,13.9,6,21.9,6
		C301.8,376,321.3,356.6,321.3,332.7L321.3,332.7z"/>
</g>
</svg>
