<svg height="512" viewBox="0 0 512 512" width="512" xmlns="http://www.w3.org/2000/svg"><g id="flat"><path d="m24 304v-40l136 56-48 8z" fill="#e8c8b3"/><path d="m280 259.7a47.98 47.98 0 0 0 -42 24.769 32 32 0 1 0 0 46.461 48 48 0 1 0 42-71.23z" fill="#63d5ee"/><g fill="#f5d3bd"><path d="m24 304 80 16 13.1-15.723a136.362 136.362 0 0 1 67.3-43.819 19.55 19.55 0 0 1 22.858 10.055 19.551 19.551 0 0 1 -8.743 26.231 48.669 48.669 0 0 0 -21.769 21.769l-.746 1.487h24v128h-78.6a42 42 0 0 1 -29.7-12.3l-19.7-19.7-48-16z"/><path d="m280 352h-80v-32h80a16 16 0 0 1 16 16 16 16 0 0 1 -16 16z"/><path d="m293.86 344a16.152 16.152 0 0 1 -2.54 3.32 15.987 15.987 0 0 1 -11.32 4.68h-64v-8z"/><path d="m296 384h-96v-32h96a16 16 0 0 1 16 16 16 16 0 0 1 -16 16z"/><path d="m280 416h-80v-32h80a16 16 0 0 1 16 16 16 16 0 0 1 -16 16z"/><path d="m264 448h-64v-32h64a16 16 0 0 1 16 16 16 16 0 0 1 -16 16z"/></g><path d="m232 392a16 16 0 0 0 -16 16 16 16 0 0 0 -32 0v8a16 16 0 0 0 -32 0v8a16 16 0 0 0 -32 0v40a16 16 0 0 0 32 0v-8a16 16 0 0 0 32 0v-8a16 16 0 0 0 32 0v-8a16 16 0 0 0 32 0v-32a16 16 0 0 0 -16-16z" fill="#e8c8b3"/><path d="m456 80h-64v-42a14 14 0 0 1 14-14h36a14 14 0 0 1 14 14z" fill="#e4e4e2"/><path d="m392 40h-72v.165l-42.366 47.835 26.366 18.133 32-34.133h56z" fill="#e4e4e2"/><path d="m408 80h32v64h-32z" fill="#c3c3c3"/><path d="m408 80h32v16h-32z" fill="#a8a8a8"/><path d="m384 144h80v32h-80z" fill="#e4e4e2"/><path d="m384 176h80a24 24 0 0 1 24 24v216a0 0 0 0 1 0 0h-128a0 0 0 0 1 0 0v-216a24 24 0 0 1 24-24z" fill="#0c82ed"/><path d="m270.125 177.416a17.8 17.8 0 0 0 19.75 0 17.8 17.8 0 0 0 5.391-23.972l-15.266-25.444-15.266 25.444a17.8 17.8 0 0 0 5.391 23.972z" fill="#009cf7"/><circle cx="216" cy="216" fill="#63d5ee" r="16"/><circle cx="144" cy="168" fill="#63d5ee" r="24"/><circle cx="352" cy="424" fill="#63d5ee" r="24"/><circle cx="352" cy="424" fill="#6ae4ff" r="16"/><circle cx="144" cy="168" fill="#6ae4ff" r="16"/><circle cx="216" cy="216" fill="#6ae4ff" r="8"/><path d="m302.635 307.705a8 8 0 0 1 -7.543-5.336 16.007 16.007 0 0 0 -25.756-6.594 8 8 0 1 1 -10.672-11.921 32.007 32.007 0 0 1 51.514 13.183 8.007 8.007 0 0 1 -7.543 10.668z" fill="#6ae4ff"/><path d="m400 240h88v112h-88z" fill="#009cf7"/><path d="m400 216h-8a8 8 0 0 1 0-16h8a8 8 0 0 1 0 16z" fill="#009cf7"/><path d="m456 216h-24a8 8 0 0 1 0-16h24a8 8 0 0 1 0 16z" fill="#009cf7"/><path d="m488 392h-72a8 8 0 0 1 0-16h72a8 8 0 0 1 0 16z" fill="#009cf7"/><path d="m384 392h-24a8 8 0 0 1 0-16h24a8 8 0 0 1 0 16z" fill="#009cf7"/><path d="m376 40h16v32h-16z" fill="#c3c3c3"/><path d="m293.86 344a16.152 16.152 0 0 1 -2.54 3.32 15.987 15.987 0 0 1 -11.32 4.68h-60a4 4 0 0 1 -4-4 4 4 0 0 1 4-4z" fill="#e8c8b3"/><path d="m309.86 376a16.152 16.152 0 0 1 -2.54 3.32 15.987 15.987 0 0 1 -11.32 4.68h-76a4 4 0 0 1 -4-4 4 4 0 0 1 4-4z" fill="#e8c8b3"/><path d="m293.86 408a16.152 16.152 0 0 1 -2.54 3.32 15.987 15.987 0 0 1 -11.32 4.68h-80v-8z" fill="#e8c8b3"/><path d="m277.86 440a16.152 16.152 0 0 1 -2.54 3.32 15.987 15.987 0 0 1 -11.32 4.68h-80v-8z" fill="#e8c8b3"/><path d="m232 400a16 16 0 0 0 -16 16 16 16 0 0 0 -32 0v8a16 16 0 0 0 -32 0v8a16 16 0 0 0 -32 0v40a16 16 0 0 0 32 0v-8a16 16 0 0 0 32 0v-8a16 16 0 0 0 32 0v-8a16 16 0 0 0 32 0v-32a16 16 0 0 0 -16-16z" fill="#f5d3bd"/></g></svg>