<svg id="Capa_1" enable-background="new 0 0 512.035 512.035" height="512" viewBox="0 0 512.035 512.035" width="512" xmlns="http://www.w3.org/2000/svg"><g><g><path d="m229.223 185.043v-11.193c1.239-16.721-11.965-30.97-28.696-30.97-62.148 0-116.383 22.24-131.734 82.589l-56.952 174.753c-11.461 45.057 33.127 77.307 76.769 61.49 11.306-4.098 56.912-10.627 56.912-10.627 27.709-6.277 52.804-21.376 70.604-43.52 12.833-15.964 11.633-34.616 13.096-54.366v-68.611" fill="#ff7d97"/><path d="m282.812 188.362v-14.511c-1.239-16.721 11.965-30.97 28.696-30.97 62.148 0 116.383 22.24 131.734 82.589l56.951 174.753c11.461 45.057-33.127 77.307-76.769 61.49-11.306-4.098-56.912-10.627-56.912-10.627-27.709-6.277-52.804-21.376-70.604-43.52-12.833-15.964-11.633-34.616-13.096-54.366v-72.44" fill="#ff9eb1"/><g><path d="m229.188 192.36c-.556 23.385-16.525 43.663-39.251 49.618l-4.156 1.089c-11.227 2.942-23.141 1.697-33.517-3.502l-1.875-.939 25.836 74.329c1.415-6.399 5.749-11.76 11.702-14.474l68.089-31.042v-75.079z" fill="#fff3da"/><path d="m359.771 239.565c-10.376 5.199-22.29 6.444-33.517 3.502l-4.156-1.089c-22.726-5.955-38.695-26.233-39.251-49.618h-26.829v75.078l68.089 31.042c5.954 2.714 10.288 8.075 11.702 14.474l25.837-74.329z" fill="#ffe6b4"/></g><path d="m282.732 56.906.099-10.673h-53.627v144.865c0 .422-.006.842-.016 1.262h53.659c-.01-.42-.115-45.068-.115-45.068" fill="#ffe6b4"/></g><g><g><path d="m509.885 397.757c-.054-.213-.115-.425-.184-.634l-56.851-174.445c-14.889-57.909-65.07-89.798-141.342-89.798-7.943 0-15.675 2.473-22.121 6.948-1.768-1.578-4.1-2.537-6.655-2.537h-.024c-5.523.013-9.989 4.501-9.977 10.023.022 9.248.081 35.046.081 35.046h-33.59l-.019-126.127h33.534l-.005.58c-.051 5.522 4.384 10.041 9.907 10.093 5.519.1 10.042-4.384 10.092-9.907l.099-10.673c.025-2.668-1.018-5.235-2.896-7.131s-4.436-2.962-7.104-2.962h-53.627c-5.523 0-10 4.478-10 10v91.46c-5.675-3.12-12.104-4.814-18.677-4.814-76.272 0-126.453 31.889-141.342 89.798l-56.85 174.447c-.068.209-.129.421-.184.634-5.901 23.2.478 45.351 17.501 60.772 12.508 11.332 28.906 17.271 46.043 17.271 8.721 0 17.634-1.538 26.324-4.688 7.527-2.728 37.683-7.661 54.922-10.13.266-.038.53-.087.792-.146 30.277-6.858 57.334-23.552 76.189-47.007 12.861-15.999 13.814-33.786 14.737-50.987.157-2.921.319-5.942.538-8.905.018-.245.027-.492.027-.738v-67.115l16.795-7.657 16.795 7.657v67.115c0 .246.009.493.027.738.219 2.963.381 5.984.538 8.905.922 17.201 1.876 34.988 14.737 50.987 18.854 23.455 45.912 40.148 76.189 47.007.262.06.526.108.792.146 17.238 2.468 47.392 7.4 54.922 10.13 8.691 3.15 17.601 4.688 26.324 4.688 17.135-.001 33.535-5.94 46.042-17.271 17.023-15.422 23.402-37.572 17.501-60.773zm-290.662-44.922c-.22 3.038-.381 6.035-.537 8.938-.821 15.321-1.531 28.553-10.354 39.527-15.958 19.853-38.901 34.027-64.637 39.945-6.38.918-46.85 6.847-58.493 11.066-18.782 6.806-38.754 3.51-52.125-8.604-11.277-10.217-15.504-25.042-11.621-40.713l56.844-174.426c.068-.209.129-.42.184-.634 15.779-62.032 75.077-75.054 122.043-75.054 5.268 0 10.146 2.129 13.737 5.996 2.827 3.044 4.525 6.806 4.94 10.839v21.383c0 .34-.004.68-.013 1.019v.012c-.451 18.87-13.522 35.39-31.788 40.176l-4.156 1.09c-8.882 2.327-18.294 1.344-26.501-2.77l-1.875-.939c-3.638-1.823-8.018-1.26-11.077 1.425s-4.185 6.955-2.849 10.799l9.053 26.043h-30.301c-5.523 0-10 4.478-10 10s4.477 10 10 10h37.253l8.983 25.844v1.009c0 1.72-.036 3.391-.108 5.02l-71.1 9.734c-5.472.749-9.3 5.792-8.551 11.264.687 5.012 4.974 8.645 9.895 8.645.452 0 .909-.03 1.369-.094l64.886-8.883c-6.171 18.924-20.344 31.82-43.2 49.411l-2.024 1.558c-4.377 3.368-5.195 9.646-1.828 14.023 1.97 2.561 4.935 3.903 7.933 3.903 2.128 0 4.273-.678 6.091-2.075l2.025-1.559c31.845-24.509 54.424-45.366 54.61-90.385.021-.084.041-.168.06-.253.733-3.313 3.008-6.13 6.086-7.533l27.146-12.376zm-35.443-63.455c-1.512.689-2.957 1.499-4.322 2.414l-13.079-37.627c7.275.926 14.721.464 21.937-1.427l4.155-1.089c23.64-6.193 41.359-25.766 45.703-49.291h7.843v58.646zm82.238-87.019h7.843c4.344 23.525 22.063 43.098 45.703 49.291l4.155 1.088c7.216 1.891 14.66 2.354 21.938 1.428l-13.079 37.627c-1.365-.915-2.81-1.724-4.322-2.413l-62.237-28.374v-58.647zm212.939 241.347c-13.37 12.113-33.342 15.41-52.125 8.604-11.643-4.22-52.113-10.148-58.493-11.066-25.735-5.918-48.679-20.093-64.637-39.945-8.823-10.975-9.532-24.206-10.354-39.527-.156-2.902-.316-5.899-.537-8.938v-57.631l27.146 12.376c3.078 1.402 5.353 4.219 6.086 7.533.019.086.039.171.06.255.187 45.017 22.766 65.874 54.611 90.383l2.024 1.558c1.817 1.398 3.962 2.075 6.091 2.075 2.998 0 5.963-1.344 7.933-3.903 3.368-4.377 2.549-10.655-1.828-14.023l-2.023-1.557c-22.857-17.591-37.03-30.488-43.201-49.412l64.886 8.883c.46.063.917.094 1.369.094 4.92 0 9.209-3.633 9.895-8.645.749-5.472-3.08-10.515-8.551-11.264l-71.1-9.734c-.072-1.628-.108-3.3-.108-5.02v-1.009l8.983-25.843h37.253c5.523 0 10-4.478 10-10s-4.477-10-10-10h-30.301l9.052-26.043c1.336-3.844.209-8.114-2.849-10.799-3.059-2.686-7.44-3.248-11.077-1.425l-1.875.939c-8.209 4.113-17.62 5.097-26.502 2.769l-4.156-1.089c-18.249-4.781-31.312-21.275-31.786-40.122-.004-.698-.056-20.945-.059-21.967.321-4.221 2.042-8.169 4.985-11.338 3.591-3.867 8.469-5.996 13.737-5.996 46.966 0 106.264 13.021 122.043 75.054.054.214.115.425.184.634l56.844 174.426c3.885 15.67-.342 30.495-11.62 40.713z"/><path d="m280.777 92.481c-4.122.836-7.342 4.223-7.946 8.389-.605 4.169 1.595 8.389 5.338 10.307 3.829 1.962 8.591 1.21 11.638-1.826 2.955-2.944 3.729-7.559 1.968-11.324-1.914-4.093-6.561-6.447-10.998-5.546z"/></g></g></g></svg>